<?xml version="1.0" standalone="no"?>
<!DOCTYPE svg PUBLIC "-//W3C//DTD SVG 20010904//EN"
 "http://www.w3.org/TR/2001/REC-SVG-20010904/DTD/svg10.dtd">
<svg version="1.0" xmlns="http://www.w3.org/2000/svg"
 width="512.000000pt" height="512.000000pt" viewBox="0 0 512.000000 512.000000"
 preserveAspectRatio="xMidYMid meet">
<metadata>
Created by potrace 1.16, written by Peter Selinger 2001-2019
</metadata>
<g transform="translate(0.000000,512.000000) scale(0.100000,-0.100000)"
fill="#000000" stroke="none">
<path d="M2155 5105 c-288 -40 -526 -114 -777 -241 -554 -282 -977 -773 -1174
-1360 -39 -116 -48 -155 -51 -234 -15 -313 177 -574 482 -656 67 -18 139 -19
1825 -19 1686 0 1758 1 1825 19 305 82 501 350 482 662 -10 179 -156 534 -319
779 -389 584 -990 957 -1692 1050 -133 18 -472 18 -601 0z m-239 -436 c-16
-83 -83 -165 -165 -202 -68 -31 -170 -30 -236 3 -27 14 -51 30 -52 36 -5 17
250 133 402 183 52 17 58 14 51 -20z m1205 -5 c117 -40 334 -143 334 -159 0
-5 -22 -21 -50 -35 -66 -33 -168 -34 -236 -3 -60 27 -119 86 -147 146 -22 47
-29 87 -14 87 4 0 55 -16 113 -36z m-2137 -714 c64 -124 82 -267 51 -399 -49
-204 -232 -388 -436 -436 -76 -18 -82 -14 -99 72 -14 65 -5 113 46 251 72 193
219 452 330 581 l37 43 19 -23 c10 -13 34 -53 52 -89z m1597 82 c183 -51 320
-207 349 -398 21 -137 -29 -280 -135 -390 -212 -218 -560 -184 -730 71 -126
190 -102 428 60 591 124 124 293 171 456 126z m1506 -69 c84 -111 141 -206
208 -346 113 -232 147 -374 115 -471 -11 -35 -14 -37 -43 -30 -218 47 -395
227 -442 451 -19 89 -19 158 1 246 20 86 82 217 103 217 4 0 30 -30 58 -67z"/>
<path d="M1600 2212 c0 -5 -37 -242 -81 -528 -109 -692 -110 -794 -14 -1040
119 -302 374 -529 695 -616 74 -20 108 -23 260 -23 213 0 289 17 455 99 117
58 247 153 240 174 -2 6 -12 49 -21 95 -13 64 -15 110 -10 209 5 99 3 128 -6
128 -7 0 -56 21 -108 47 -78 38 -110 62 -175 128 -122 123 -182 243 -205 409
-34 241 108 577 349 828 l93 98 -736 0 c-405 0 -736 -4 -736 -8z"/>
<path d="M3767 2204 c-357 -64 -671 -336 -786 -680 -36 -108 -39 -175 -12
-263 34 -111 117 -195 231 -236 28 -10 95 -19 178 -22 l132 -6 -5 -31 c-37
-211 -58 -377 -58 -451 0 -224 137 -412 353 -485 95 -32 231 -31 328 3 86 30
189 101 237 164 79 104 122 244 110 363 -6 62 -49 356 -61 411 l-5 26 133 6
c147 6 201 20 281 76 120 82 176 258 131 412 -28 97 -111 251 -181 339 -240
299 -627 443 -1006 374z"/>
</g>
</svg>
